<svg fill="none" height="14" viewBox="0 0 14 14" width="14" xmlns="http://www.w3.org/2000/svg"><g stroke="#000001" stroke-linecap="round" stroke-linejoin="round"><path d="m9.5 1.5h1.5c.2652 0 .5196.10536.7071.29289.1875.18754.2929.44189.2929.70711v10c0 .2652-.1054.5196-.2929.7071s-.4419.2929-.7071.2929h-8c-.26522 0-.51957-.1054-.70711-.2929-.18753-.1875-.29289-.4419-.29289-.7071v-10c0-.26522.10536-.51957.29289-.70711.18754-.18753.44189-.29289.70711-.29289h1.5"/><path d="m8.5.5h-3c-.55228 0-1 .447715-1 1v.5c0 .55228.44772 1 1 1h3c.55228 0 1-.44772 1-1v-.5c0-.552285-.44772-1-1-1z"/><path d="m4.5 5.5h5"/><path d="m4.5 8h5"/><path d="m4.5 10.5h5"/></g></svg>